:FULLY-SPECIFIED
:FORCE-ALL-JOINTS-BE-3DOF
:DEGREES
1053
root 1.20486 15.1636 32.5572 4.9092 -3.44127 3.3538
lfemur 8.39487 0.532353 5.6042
ltibia 0.885945 -0 0
lfoot -30.8118 -10.9149 -0.000290258
ltoes -34.354 0 0
rfemur -30.9892 -15.627 -6.19733
rtibia 49.9046 -0 0
rfoot -21.967 5.3024 0.000336827
rtoes -41.23 0 0
lowerback -1.80662 -0.0740886 -0.168799
upperback -0.505236 -0.0651666 -5.93689
thorax 0.487428 -0.0350718 -6.05804
lowerneck -7.08997 0.768015 6.39252
upperneck 1.41446 0.338341 3.6699
head 1.65075 0.300183 0.0838134
lclavicle 9.88103e-15 -2.05572e-14 3.1544e-31
lhumerus -58.5174 -46.6535 115.356
lradius 55.7333 -0 0
lwrist 25.4563 0 0
lhand 37.4511 25.2339 0.000141646
lfingers 7.12502 -0 0
lthumb 60.2508 38.7479 3.56836e-05
rclavicle 9.88103e-15 -2.05572e-14 3.1544e-31
rhumerus 2.25405 -23.4716 0.537981
rradius 27.545 -0 0
rwrist -9.61481 0 0
rhand -30.6743 -42.1929 -1.05712e-05
rfingers 7.12502 -0 0
rthumb -3.96864 -72.1354 -1.02454e-05
1054
root 1.20685 15.1638 32.5609 4.91225 -3.44285 3.34846
lfemur 8.39077 0.536192 5.59699
ltibia 0.918758 -0 0
lfoot -30.8362 -10.9113 -0.000279507
ltoes -34.3516 0 0
rfemur -30.9708 -15.6152 -6.20443
rtibia 49.8932 -0 0
rfoot -21.9574 5.31297 0.000324351
rtoes -41.1969 0 0
lowerback -1.81853 -0.0727937 -0.181831
upperback -0.504536 -0.0627333 -5.93517
thorax 0.495121 -0.0337408 -6.04872
lowerneck -7.08607 0.763597 6.39367
upperneck 1.40373 0.333126 3.6734
head 1.64646 0.297242 0.0845097
lclavicle 1.0155e-14 -2.09063e-14 3.03757e-31
lhumerus -58.5108 -46.6554 115.356
lradius 55.7328 -0 0
lwrist 25.464 0 0
lhand 37.4569 25.2414 0.0001364
lfingers 7.12502 -0 0
lthumb 60.2557 38.7501 3.4362e-05
rclavicle 1.0155e-14 -2.09063e-14 3.03757e-31
rhumerus 2.23758 -23.4579 0.549092
rradius 27.5439 -0 0
rwrist -9.59738 0 0
rhand -30.6745 -42.1746 -1.01796e-05
rfingers 7.12502 -0 0
rthumb -3.96881 -72.1172 -9.86595e-06
1055
root 1.20884 15.164 32.5647 4.91529 -3.44443 3.34311
lfemur 8.38668 0.540031 5.58978
ltibia 0.95157 -0 0
lfoot -30.8605 -10.9077 -0.000267221
ltoes -34.3491 0 0
rfemur -30.9523 -15.6033 -6.21152
rtibia 49.8818 -0 0
rfoot -21.9477 5.32355 0.000310094
rtoes -41.1637 0 0
lowerback -1.83044 -0.0715015 -0.194864
upperback -0.503837 -0.0602999 -5.93345
thorax 0.502815 -0.0324111 -6.0394
lowerneck -7.08218 0.759179 6.39481
upperneck 1.393 0.327912 3.67689
head 1.64217 0.294301 0.0852063
lclavicle 1.04289e-14 -2.12554e-14 2.90405e-31
lhumerus -58.5042 -46.6573 115.357
lradius 55.7323 -0 0
lwrist 25.4718 0 0
lhand 37.4627 25.2489 0.000130404
lfingers 7.12502 -0 0
lthumb 60.2606 38.7523 3.28516e-05
rclavicle 1.04289e-14 -2.12554e-14 2.90405e-31
rhumerus 2.22112 -23.4443 0.560199
rradius 27.5427 -0 0
rwrist -9.57994 0 0
rhand -30.6747 -42.1564 -9.73217e-06
rfingers 7.12502 -0 0
rthumb -3.96898 -72.0989 -9.43228e-06
1056
root 1.21083 15.1641 32.5684 4.91833 -3.446 3.33777
lfemur 8.38258 0.543869 5.58257
ltibia 0.984383 -0 0
lfoot -30.8848 -10.9041 -0.000253399
ltoes -34.3467 0 0
rfemur -30.9338 -15.5914 -6.21861
rtibia 49.8704 -0 0
rfoot -21.938 5.33412 0.000294055
rtoes -41.1305 0 0
lowerback -1.84235 -0.070212 -0.207896
upperback -0.503137 -0.0578666 -5.93174
thorax 0.510509 -0.0310827 -6.03008
lowerneck -7.07828 0.754761 6.39596
upperneck 1.38226 0.322698 3.68038
head 1.63788 0.29136 0.0859031
lclavicle 1.07028e-14 -2.16045e-14 2.75384e-31
lhumerus -58.4977 -46.6592 115.357
lradius 55.7318 -0 0
lwrist 25.4796 0 0
lhand 37.4684 25.2563 0.000123659
lfingers 7.12502 -0 0
lthumb 60.2655 38.7545 3.11523e-05
rclavicle 1.07028e-14 -2.16045e-14 2.75384e-31
rhumerus 2.20466 -23.4306 0.571299
rradius 27.5416 -0 0
rwrist -9.5625 0 0
rhand -30.6749 -42.1381 -9.22878e-06
rfingers 7.12502 -0 0
rthumb -3.96915 -72.0807 -8.9444e-06
1057
root 1.21282 15.1643 32.5722 4.92138 -3.44758 3.33243
lfemur 8.37848 0.547707 5.57536
ltibia 1.0172 -0 0
lfoot -30.9091 -10.9005 -0.000238041
ltoes -34.3443 0 0
rfemur -30.9153 -15.5796 -6.2257
rtibia 49.8589 -0 0
rfoot -21.9284 5.34469 0.000276233
rtoes -41.0974 0 0
lowerback -1.85426 -0.0689252 -0.220929
upperback -0.502437 -0.0554333 -5.93002
thorax 0.518203 -0.0297555 -6.02076
lowerneck -7.07438 0.750344 6.3971
upperneck 1.37153 0.317485 3.68388
head 1.63359 0.288419 0.0866001
lclavicle 1.09768e-14 -2.19535e-14 2.58694e-31
lhumerus -58.4911 -46.6611 115.358
lradius 55.7314 -0 0
lwrist 25.4873 0 0
lhand 37.4742 25.2638 0.000116165
lfingers 7.12502 -0 0
lthumb 60.2704 38.7567 2.92643e-05
rclavicle 1.09768e-14 -2.19535e-14 2.58694e-31
rhumerus 2.1882 -23.4169 0.582395
rradius 27.5405 -0 0
rwrist -9.54507 0 0
rhand -30.675 -42.1199 -8.66946e-06
rfingers 7.12502 -0 0
rthumb -3.96932 -72.0624 -8.40231e-06
1058
root 1.21481 15.1645 32.5759 4.92442 -3.44916 3.32709
lfemur 8.37439 0.551544 5.56815
ltibia 1.05001 -0 0
lfoot -30.9335 -10.8969 -0.000221148
ltoes -34.3418 0 0
rfemur -30.8968 -15.5677 -6.23278
rtibia 49.8475 -0 0
rfoot -21.9187 5.35526 0.000256629
rtoes -41.0642 0 0
lowerback -1.86617 -0.0676411 -0.233963
upperback -0.501738 -0.0530001 -5.9283
thorax 0.525897 -0.0284295 -6.01143
lowerneck -7.07048 0.745926 6.39825
upperneck 1.3608 0.312272 3.68737
head 1.6293 0.285478 0.0872973
lclavicle 1.12507e-14 -2.23026e-14 2.40335e-31
lhumerus -58.4846 -46.6631 115.358
lradius 55.7309 -0 0
lwrist 25.4951 0 0
lhand 37.48 25.2712 0.000107921
lfingers 7.12502 -0 0
lthumb 60.2753 38.7589 2.71875e-05
rclavicle 1.12507e-14 -2.23026e-14 2.40335e-31
rhumerus 2.17175 -23.4032 0.593485
rradius 27.5393 -0 0
rwrist -9.52763 0 0
rhand -30.6752 -42.1016 -8.0542e-06
rfingers 7.12502 -0 0
rthumb -3.96949 -72.0442 -7.80601e-06
1059
root 1.2168 15.1646 32.5796 4.92746 -3.45073 3.32174
lfemur 8.37029 0.55538 5.56094
ltibia 1.08282 -0 0
lfoot -30.9578 -10.8932 -0.000202719
ltoes -34.3394 0 0
rfemur -30.8783 -15.5558 -6.23986
rtibia 49.8361 -0 0
rfoot -21.9091 5.36583 0.000235244
rtoes -41.0311 0 0
lowerback -1.87808 -0.0663598 -0.246996
upperback -0.501038 -0.0505668 -5.92658
thorax 0.533592 -0.0271048 -6.00211
lowerneck -7.06658 0.741507 6.39939
upperneck 1.35007 0.307061 3.69087
head 1.62501 0.282537 0.0879947
lclavicle 1.15246e-14 -2.26517e-14 2.20307e-31
lhumerus -58.478 -46.665 115.359
lradius 55.7304 -0 0
lwrist 25.5029 0 0
lhand 37.4857 25.2787 9.89274e-05
lfingers 7.12502 -0 0
lthumb 60.2803 38.7611 2.49219e-05
rclavicle 1.15246e-14 -2.26517e-14 2.20307e-31
rhumerus 2.15531 -23.3895 0.604569
rradius 27.5382 -0 0
rwrist -9.51019 0 0
rhand -30.6754 -42.0834 -7.38301e-06
rfingers 7.12502 -0 0
rthumb -3.96966 -72.0259 -7.15551e-06
1060
root 1.21879 15.1648 32.5834 4.93051 -3.45231 3.3164
lfemur 8.36619 0.559216 5.55372
ltibia 1.11563 -0 0
lfoot -30.9821 -10.8896 -0.000182754
ltoes -34.337 0 0
rfemur -30.8599 -15.5439 -6.24693
rtibia 49.8247 -0 0
rfoot -21.8994 5.37641 0.000212076
rtoes -40.9979 0 0
lowerback -1.89 -0.0650811 -0.26003
upperback -0.500338 -0.0481336 -5.92486
thorax 0.541287 -0.0257814 -5.99279
lowerneck -7.06268 0.737089 6.40053
upperneck 1.33933 0.301849 3.69437
head 1.62072 0.279597 0.0886924
lclavicle 1.17986e-14 -2.30008e-14 1.9861e-31
lhumerus -58.4714 -46.6669 115.359
lradius 55.7299 -0 0
lwrist 25.5106 0 0
lhand 37.4915 25.2861 8.91846e-05
lfingers 7.12502 -0 0
lthumb 60.2852 38.7633 2.24674e-05
rclavicle 1.17986e-14 -2.30008e-14 1.9861e-31
rhumerus 2.13886 -23.3758 0.615648
rradius 27.5371 -0 0
rwrist -9.49276 0 0
rhand -30.6756 -42.0651 -6.65589e-06
rfingers 7.12502 -0 0
rthumb -3.96983 -72.0077 -6.45079e-06
